<svg xmlns="http://www.w3.org/2000/svg" viewBox="0 0 431.53 93"><defs><style>.cls-1{fill:#0806aa;}.cls-2{fill:#06058f;}.cls-3{fill:none;stroke:#0d08ff;stroke-miterlimit:10;}.cls-4{fill:#0d08ff;}</style></defs><g id="Слой_2" data-name="Слой 2"><g id="button_big_2layers"><polygon class="cls-1" points="12.53 63.35 51.37 18.04 323.22 18.04 368.53 63.35 342.64 86 112.86 86 93.44 66.58 12.53 63.35"/><polygon class="cls-1" points="329.53 18 351.53 18 399.53 62 373.53 86 350.84 86.13 375.53 63 329.53 18"/><polygon class="cls-2" points="359.53 18 376.53 18 410.53 50 401.53 58 359.53 18"/><polygon class="cls-2" points="383.53 17.59 394.53 18 410.53 34 426.96 34.3 413.53 48 383.53 17.59"/><polyline class="cls-3" points="85.03 76.5 1.03 73.5 50.53 13.5 254.53 13.5 267.53 0.5 316.03 1 321.03 8 389.03 8.5 412.03 29.5 431.03 29.5 431.03 37.5 377.03 92.5 207.03 92.5"/><polygon class="cls-4" points="273.49 0.56 260.03 14.5 330.03 14.5 335.88 8.11 321.03 7.5 316.03 0.5 273.49 0.56"/><polygon class="cls-4" points="13.03 65.5 92.03 68.5 85.03 76.5 5.03 73.5 13.03 65.5"/></g></g></svg>