# Blender v3.0.0 OBJ File: ''
# www.blender.org
mtllib card _deck.mtl
o ĞšÑƒĞ±
v -0.902470 -0.002541 -0.500460
v -0.787610 -0.002541 -0.615320
v -0.787610 -0.002541 0.615320
v -0.902470 -0.002541 0.500460
v -0.787610 0.284608 -0.615320
v -0.902470 0.284608 -0.500460
v -0.902470 0.284608 0.500460
v -0.787610 0.284608 0.615320
v 0.787610 -0.002541 -0.615320
v 0.902470 -0.002541 -0.500460
v 0.902470 -0.002541 0.500460
v 0.787610 -0.002541 0.615320
v 0.902470 0.284608 -0.500460
v 0.787610 0.284608 -0.615320
v 0.787610 0.284608 0.615320
v 0.902470 0.284608 0.500460
v -0.787610 0.261858 -0.615320
v -0.787610 0.266338 -0.615320
v -0.787610 0.241347 -0.615320
v -0.787610 0.245827 -0.615320
v -0.787610 0.220836 -0.615320
v -0.787610 0.225317 -0.615320
v -0.787610 0.200326 -0.615320
v -0.787610 0.204806 -0.615320
v -0.787610 0.179815 -0.615320
v -0.787610 0.184295 -0.615320
v -0.787610 0.159304 -0.615320
v -0.787610 0.163785 -0.615320
v -0.787610 0.138794 -0.615320
v -0.787610 0.143274 -0.615320
v -0.787610 0.118283 -0.615320
v -0.787610 0.122763 -0.615320
v -0.787610 0.097772 -0.615320
v -0.787610 0.102253 -0.615320
v -0.787610 0.077262 -0.615320
v -0.787610 0.081742 -0.615320
v -0.787610 0.056751 -0.615320
v -0.787610 0.061231 -0.615320
v -0.787610 0.036240 -0.615320
v -0.787610 0.040721 -0.615320
v -0.787610 0.015730 -0.615320
v -0.787610 0.020210 -0.615320
v -0.902470 0.015730 -0.500460
v -0.902470 0.020210 -0.500460
v -0.902470 0.036240 -0.500460
v -0.902470 0.040721 -0.500460
v -0.902470 0.056751 -0.500460
v -0.902470 0.061231 -0.500460
v -0.902470 0.077262 -0.500460
v -0.902470 0.081742 -0.500460
v -0.902470 0.097772 -0.500460
v -0.902470 0.102253 -0.500460
v -0.902470 0.118283 -0.500460
v -0.902470 0.122763 -0.500460
v -0.902470 0.138794 -0.500460
v -0.902470 0.143274 -0.500460
v -0.902470 0.159304 -0.500460
v -0.902470 0.163785 -0.500460
v -0.902470 0.179815 -0.500460
v -0.902470 0.184295 -0.500460
v -0.902470 0.200326 -0.500460
v -0.902470 0.204806 -0.500460
v -0.902470 0.220836 -0.500460
v -0.902470 0.225317 -0.500460
v -0.902470 0.241347 -0.500460
v -0.902470 0.245827 -0.500460
v -0.902470 0.261858 -0.500460
v -0.902470 0.266338 -0.500460
v -0.787610 0.015730 0.615320
v -0.787610 0.020210 0.615320
v -0.787610 0.036240 0.615320
v -0.787610 0.040721 0.615320
v -0.787610 0.056751 0.615320
v -0.787610 0.061231 0.615320
v -0.787610 0.077262 0.615320
v -0.787610 0.081742 0.615320
v -0.787610 0.097772 0.615320
v -0.787610 0.102253 0.615320
v -0.787610 0.118283 0.615320
v -0.787610 0.122763 0.615320
v -0.787610 0.138794 0.615320
v -0.787610 0.143274 0.615320
v -0.787610 0.159304 0.615320
v -0.787610 0.163785 0.615320
v -0.787610 0.179815 0.615320
v -0.787610 0.184295 0.615320
v -0.787610 0.200326 0.615320
v -0.787610 0.204806 0.615320
v -0.787610 0.220836 0.615320
v -0.787610 0.225317 0.615320
v -0.787610 0.241347 0.615320
v -0.787610 0.245827 0.615320
v -0.787610 0.261858 0.615320
v -0.787610 0.266338 0.615320
v -0.902470 0.266338 0.500460
v -0.902470 0.261858 0.500460
v -0.902470 0.245827 0.500460
v -0.902470 0.241347 0.500460
v -0.902470 0.225317 0.500460
v -0.902470 0.220836 0.500460
v -0.902470 0.204806 0.500460
v -0.902470 0.200326 0.500460
v -0.902470 0.184295 0.500460
v -0.902470 0.179815 0.500460
v -0.902470 0.163785 0.500460
v -0.902470 0.159304 0.500460
v -0.902470 0.143274 0.500460
v -0.902470 0.138794 0.500460
v -0.902470 0.122763 0.500460
v -0.902470 0.118283 0.500460
v -0.902470 0.102253 0.500460
v -0.902470 0.097772 0.500460
v -0.902470 0.081742 0.500460
v -0.902470 0.077262 0.500460
v -0.902470 0.061231 0.500460
v -0.902470 0.056751 0.500460
v -0.902470 0.040721 0.500460
v -0.902470 0.036240 0.500460
v -0.902470 0.020210 0.500460
v -0.902470 0.015730 0.500460
v 0.787610 0.020210 -0.615320
v 0.787610 0.015730 -0.615320
v 0.787610 0.040721 -0.615320
v 0.787610 0.036240 -0.615320
v 0.787610 0.061231 -0.615320
v 0.787610 0.056751 -0.615320
v 0.787610 0.081742 -0.615320
v 0.787610 0.077262 -0.615320
v 0.787610 0.102253 -0.615320
v 0.787610 0.097772 -0.615320
v 0.787610 0.122763 -0.615320
v 0.787610 0.118283 -0.615320
v 0.787610 0.143274 -0.615320
v 0.787610 0.138794 -0.615320
v 0.787610 0.163785 -0.615320
v 0.787610 0.159304 -0.615320
v 0.787610 0.184295 -0.615320
v 0.787610 0.179815 -0.615320
v 0.787610 0.204806 -0.615320
v 0.787610 0.200326 -0.615320
v 0.787610 0.225317 -0.615320
v 0.787610 0.220836 -0.615320
v 0.787610 0.245827 -0.615320
v 0.787610 0.241347 -0.615320
v 0.787610 0.266338 -0.615320
v 0.787610 0.261858 -0.615320
v 0.902470 0.266338 -0.500460
v 0.902470 0.261858 -0.500460
v 0.902470 0.245827 -0.500460
v 0.902470 0.241347 -0.500460
v 0.902470 0.225317 -0.500460
v 0.902470 0.220836 -0.500460
v 0.902470 0.204806 -0.500460
v 0.902470 0.200326 -0.500460
v 0.902470 0.184295 -0.500460
v 0.902470 0.179815 -0.500460
v 0.902470 0.163785 -0.500460
v 0.902470 0.159304 -0.500460
v 0.902470 0.143274 -0.500460
v 0.902470 0.138794 -0.500460
v 0.902470 0.122763 -0.500460
v 0.902470 0.118283 -0.500460
v 0.902470 0.102253 -0.500460
v 0.902470 0.097772 -0.500460
v 0.902470 0.081742 -0.500460
v 0.902470 0.077262 -0.500460
v 0.902470 0.061231 -0.500460
v 0.902470 0.056751 -0.500460
v 0.902470 0.040721 -0.500460
v 0.902470 0.036240 -0.500460
v 0.902470 0.020210 -0.500460
v 0.902470 0.015730 -0.500460
v 0.787610 0.266338 0.615320
v 0.787610 0.261858 0.615320
v 0.787610 0.245827 0.615320
v 0.787610 0.241347 0.615320
v 0.787610 0.225317 0.615320
v 0.787610 0.220836 0.615320
v 0.787610 0.204806 0.615320
v 0.787610 0.200326 0.615320
v 0.787610 0.184295 0.615320
v 0.787610 0.179815 0.615320
v 0.787610 0.163785 0.615320
v 0.787610 0.159304 0.615320
v 0.787610 0.143274 0.615320
v 0.787610 0.138794 0.615320
v 0.787610 0.122763 0.615320
v 0.787610 0.118283 0.615320
v 0.787610 0.102253 0.615320
v 0.787610 0.097772 0.615320
v 0.787610 0.081742 0.615320
v 0.787610 0.077262 0.615320
v 0.787610 0.061231 0.615320
v 0.787610 0.056751 0.615320
v 0.787610 0.040721 0.615320
v 0.787610 0.036240 0.615320
v 0.787610 0.020210 0.615320
v 0.787610 0.015730 0.615320
v 0.902470 0.015730 0.500460
v 0.902470 0.020210 0.500460
v 0.902470 0.036240 0.500460
v 0.902470 0.040721 0.500460
v 0.902470 0.056751 0.500460
v 0.902470 0.061231 0.500460
v 0.902470 0.077262 0.500460
v 0.902470 0.081742 0.500460
v 0.902470 0.097772 0.500460
v 0.902470 0.102253 0.500460
v 0.902470 0.118283 0.500460
v 0.902470 0.122763 0.500460
v 0.902470 0.138794 0.500460
v 0.902470 0.143274 0.500460
v 0.902470 0.159304 0.500460
v 0.902470 0.163785 0.500460
v 0.902470 0.179815 0.500460
v 0.902470 0.184295 0.500460
v 0.902470 0.200326 0.500460
v 0.902470 0.204806 0.500460
v 0.902470 0.220836 0.500460
v 0.902470 0.225317 0.500460
v 0.902470 0.241347 0.500460
v 0.902470 0.245827 0.500460
v 0.902470 0.261858 0.500460
v 0.902470 0.266338 0.500460
vt 0.375000 0.772132
vt 0.397132 0.750000
vt 0.602868 0.750000
vt 0.625000 0.772132
vt 0.625000 0.977868
vt 0.602868 1.000000
vt 0.397132 1.000000
vt 0.375000 0.977868
vt 0.647132 0.500000
vt 0.647132 0.515907
vt 0.602868 0.515907
vt 0.602868 0.500000
vt 0.625000 0.019807
vt 0.625000 0.033764
vt 0.602868 0.033764
vt 0.602868 0.019807
vt 0.625000 0.000000
vt 0.625000 0.015907
vt 0.602868 0.015907
vt 0.602868 0.000000
vt 0.397132 0.000000
vt 0.397132 0.015907
vt 0.352868 0.750000
vt 0.352868 0.734093
vt 0.397132 0.734093
vt 0.397132 0.500000
vt 0.397132 0.515907
vt 0.147132 0.734093
vt 0.147132 0.750000
vt 0.125000 0.750000
vt 0.125000 0.734093
vt 0.147132 0.519807
vt 0.147132 0.533764
vt 0.125000 0.533764
vt 0.125000 0.519807
vt 0.147132 0.537665
vt 0.147132 0.551621
vt 0.125000 0.551621
vt 0.125000 0.537665
vt 0.147132 0.555522
vt 0.147132 0.569478
vt 0.125000 0.569478
vt 0.125000 0.555522
vt 0.147132 0.573379
vt 0.147132 0.587335
vt 0.125000 0.587335
vt 0.125000 0.573379
vt 0.147132 0.591236
vt 0.147132 0.605192
vt 0.125000 0.605192
vt 0.125000 0.591236
vt 0.147132 0.609093
vt 0.147132 0.623050
vt 0.125000 0.623050
vt 0.125000 0.609093
vt 0.147132 0.626950
vt 0.147132 0.640907
vt 0.125000 0.640907
vt 0.125000 0.626950
vt 0.147132 0.644807
vt 0.147132 0.658764
vt 0.125000 0.658764
vt 0.125000 0.644807
vt 0.147132 0.662665
vt 0.147132 0.676621
vt 0.125000 0.676621
vt 0.125000 0.662665
vt 0.147132 0.680522
vt 0.147132 0.694478
vt 0.125000 0.694478
vt 0.125000 0.680522
vt 0.147132 0.698379
vt 0.147132 0.712335
vt 0.125000 0.712335
vt 0.125000 0.698379
vt 0.147132 0.716236
vt 0.147132 0.730193
vt 0.125000 0.730192
vt 0.125000 0.716236
vt 0.647132 0.519808
vt 0.647132 0.533764
vt 0.602868 0.533764
vt 0.602868 0.519807
vt 0.647132 0.537665
vt 0.647132 0.551621
vt 0.602868 0.551621
vt 0.602868 0.537665
vt 0.647132 0.555522
vt 0.647132 0.569478
vt 0.602868 0.569478
vt 0.602868 0.555522
vt 0.647132 0.573379
vt 0.647132 0.587335
vt 0.602868 0.587335
vt 0.602868 0.573379
vt 0.647132 0.591236
vt 0.647132 0.605193
vt 0.602868 0.605192
vt 0.602868 0.591236
vt 0.647132 0.609093
vt 0.647132 0.623050
vt 0.602868 0.623050
vt 0.602868 0.609093
vt 0.647132 0.626950
vt 0.647132 0.640907
vt 0.602868 0.640907
vt 0.602868 0.626950
vt 0.647132 0.644808
vt 0.647132 0.658764
vt 0.602868 0.658764
vt 0.602868 0.644807
vt 0.647132 0.662665
vt 0.647132 0.676621
vt 0.602868 0.676621
vt 0.602868 0.662665
vt 0.647132 0.680522
vt 0.647132 0.694478
vt 0.602868 0.694478
vt 0.602868 0.680522
vt 0.647132 0.698379
vt 0.647132 0.712335
vt 0.602868 0.712335
vt 0.602868 0.698379
vt 0.647132 0.716236
vt 0.647132 0.730193
vt 0.602868 0.730192
vt 0.602868 0.716236
vt 0.647132 0.734093
vt 0.647132 0.750000
vt 0.602868 0.734093
vt 0.352868 0.730192
vt 0.352868 0.716236
vt 0.397132 0.716236
vt 0.397132 0.730193
vt 0.352868 0.712335
vt 0.352868 0.698379
vt 0.397132 0.698379
vt 0.397132 0.712335
vt 0.352868 0.694478
vt 0.352868 0.680522
vt 0.397132 0.680522
vt 0.397132 0.694478
vt 0.352868 0.676621
vt 0.352868 0.662665
vt 0.397132 0.662665
vt 0.397132 0.676621
vt 0.352868 0.658764
vt 0.352868 0.644807
vt 0.397132 0.644807
vt 0.397132 0.658764
vt 0.352868 0.640907
vt 0.352868 0.626950
vt 0.397132 0.626950
vt 0.397132 0.640907
vt 0.352868 0.623050
vt 0.352868 0.609093
vt 0.397132 0.609093
vt 0.397132 0.623050
vt 0.352868 0.605192
vt 0.352868 0.591236
vt 0.397132 0.591236
vt 0.397132 0.605192
vt 0.352868 0.587335
vt 0.352868 0.573379
vt 0.397132 0.573379
vt 0.397132 0.587335
vt 0.352868 0.569478
vt 0.352868 0.555522
vt 0.397132 0.555522
vt 0.397132 0.569478
vt 0.352868 0.551621
vt 0.352868 0.537665
vt 0.397132 0.537665
vt 0.397132 0.551621
vt 0.352868 0.533764
vt 0.352868 0.519807
vt 0.397132 0.519808
vt 0.397132 0.533764
vt 0.352868 0.515907
vt 0.352868 0.500000
vt 0.852868 0.716236
vt 0.852868 0.730192
vt 0.852868 0.698379
vt 0.852868 0.712335
vt 0.852868 0.680522
vt 0.852868 0.694478
vt 0.852868 0.662665
vt 0.852868 0.676621
vt 0.852868 0.644808
vt 0.852868 0.658764
vt 0.852868 0.626950
vt 0.852868 0.640907
vt 0.852868 0.609093
vt 0.852868 0.623050
vt 0.852868 0.591236
vt 0.852868 0.605193
vt 0.852868 0.573379
vt 0.852868 0.587335
vt 0.852868 0.555522
vt 0.852868 0.569478
vt 0.852868 0.537665
vt 0.852868 0.551621
vt 0.852868 0.519807
vt 0.852868 0.533764
vt 0.852868 0.500000
vt 0.852868 0.515907
vt 0.147132 0.500000
vt 0.147132 0.515907
vt 0.397132 0.019807
vt 0.397132 0.033764
vt 0.397132 0.037665
vt 0.602868 0.037665
vt 0.602868 0.051621
vt 0.397132 0.051621
vt 0.397132 0.055522
vt 0.602868 0.055522
vt 0.602868 0.069478
vt 0.397132 0.069478
vt 0.397132 0.073379
vt 0.602868 0.073379
vt 0.602868 0.087335
vt 0.397132 0.087335
vt 0.397132 0.091236
vt 0.602868 0.091236
vt 0.602868 0.105193
vt 0.397132 0.105193
vt 0.397132 0.109093
vt 0.602868 0.109093
vt 0.602868 0.123050
vt 0.397132 0.123050
vt 0.397132 0.126950
vt 0.602868 0.126950
vt 0.602868 0.140907
vt 0.397132 0.140907
vt 0.397132 0.144807
vt 0.602868 0.144807
vt 0.602868 0.158764
vt 0.397132 0.158764
vt 0.397132 0.162665
vt 0.602868 0.162665
vt 0.602868 0.176621
vt 0.397132 0.176621
vt 0.397132 0.180522
vt 0.602868 0.180522
vt 0.602868 0.194478
vt 0.397132 0.194478
vt 0.397132 0.198379
vt 0.602868 0.198379
vt 0.602868 0.212335
vt 0.397132 0.212335
vt 0.397132 0.216236
vt 0.602868 0.216236
vt 0.602868 0.230193
vt 0.397132 0.230193
vt 0.397132 0.234093
vt 0.602868 0.234093
vt 0.602868 0.250000
vt 0.397132 0.250000
vt 0.625000 0.234093
vt 0.625000 0.250000
vt 0.625000 0.216236
vt 0.625000 0.230192
vt 0.625000 0.198379
vt 0.625000 0.212335
vt 0.625000 0.180522
vt 0.625000 0.194478
vt 0.625000 0.162665
vt 0.625000 0.176621
vt 0.625000 0.144807
vt 0.625000 0.158764
vt 0.625000 0.126950
vt 0.625000 0.140907
vt 0.625000 0.109093
vt 0.625000 0.123050
vt 0.625000 0.091236
vt 0.625000 0.105193
vt 0.625000 0.073379
vt 0.625000 0.087335
vt 0.625000 0.055522
vt 0.625000 0.069478
vt 0.625000 0.037665
vt 0.625000 0.051621
vt 0.852868 0.734093
vt 0.852868 0.750000
vt 0.125000 0.515907
vt 0.125000 0.500000
vt 0.000001 0.088532
vt 0.088529 0.000004
vt 0.911471 0.000004
vt 0.999999 0.088532
vt 0.999999 0.911474
vt 0.911471 1.000002
vt 0.088529 1.000002
vt 0.000001 0.911474
vn 0.0000 -1.0000 -0.0000
vn 0.7071 0.0000 0.7071
vn -0.7071 0.0000 0.7071
vn -1.0000 0.0000 0.0000
vn 0.7071 0.0000 -0.7071
vn 1.0000 0.0000 0.0000
vn -0.7071 0.0000 -0.7071
vn 0.0000 0.0000 -1.0000
vn 0.0000 0.0000 1.0000
vn 0.0000 1.0000 0.0000
usemtl card1
s off
f 9/1/1 10/2/1 11/3/1 12/4/1 3/5/1 4/6/1 1/7/1 2/8/1
f 15/9/2 173/10/2 224/11/2 16/12/2
f 70/13/3 71/14/3 118/15/3 119/16/3
f 3/17/3 69/18/3 120/19/3 4/20/3
f 1/21/4 4/20/4 120/19/4 43/22/4
f 9/23/5 122/24/5 172/25/5 10/2/5
f 13/26/6 16/12/6 224/11/6 147/27/6
f 41/28/7 2/29/7 1/30/7 43/31/7
f 17/32/7 20/33/7 66/34/7 67/35/7
f 19/36/7 22/37/7 64/38/7 65/39/7
f 21/40/7 24/41/7 62/42/7 63/43/7
f 23/44/7 26/45/7 60/46/7 61/47/7
f 25/48/7 28/49/7 58/50/7 59/51/7
f 27/52/7 30/53/7 56/54/7 57/55/7
f 29/56/7 32/57/7 54/58/7 55/59/7
f 31/60/7 34/61/7 52/62/7 53/63/7
f 33/64/7 36/65/7 50/66/7 51/67/7
f 35/68/7 38/69/7 48/70/7 49/71/7
f 37/72/7 40/73/7 46/74/7 47/75/7
f 39/76/7 42/77/7 44/78/7 45/79/7
f 41/28/8 122/24/8 9/23/8 2/29/8
f 174/80/2 175/81/2 222/82/2 223/83/2
f 176/84/2 177/85/2 220/86/2 221/87/2
f 178/88/2 179/89/2 218/90/2 219/91/2
f 180/92/2 181/93/2 216/94/2 217/95/2
f 182/96/2 183/97/2 214/98/2 215/99/2
f 184/100/2 185/101/2 212/102/2 213/103/2
f 186/104/2 187/105/2 210/106/2 211/107/2
f 188/108/2 189/109/2 208/110/2 209/111/2
f 190/112/2 191/113/2 206/114/2 207/115/2
f 192/116/2 193/117/2 204/118/2 205/119/2
f 194/120/2 195/121/2 202/122/2 203/123/2
f 196/124/2 197/125/2 200/126/2 201/127/2
f 198/128/2 12/129/2 11/3/2 199/130/2
f 121/131/5 124/132/5 170/133/5 171/134/5
f 123/135/5 126/136/5 168/137/5 169/138/5
f 125/139/5 128/140/5 166/141/5 167/142/5
f 127/143/5 130/144/5 164/145/5 165/146/5
f 129/147/5 132/148/5 162/149/5 163/150/5
f 131/151/5 134/152/5 160/153/5 161/154/5
f 133/155/5 136/156/5 158/157/5 159/158/5
f 135/159/5 138/160/5 156/161/5 157/162/5
f 137/163/5 140/164/5 154/165/5 155/166/5
f 139/167/5 142/168/5 152/169/5 153/170/5
f 141/171/5 144/172/5 150/173/5 151/174/5
f 143/175/5 146/176/5 148/177/5 149/178/5
f 145/179/5 14/180/5 13/26/5 147/27/5
f 196/124/9 71/181/9 70/182/9 197/125/9
f 194/120/9 73/183/9 72/184/9 195/121/9
f 192/116/9 75/185/9 74/186/9 193/117/9
f 190/112/9 77/187/9 76/188/9 191/113/9
f 188/108/9 79/189/9 78/190/9 189/109/9
f 186/104/9 81/191/9 80/192/9 187/105/9
f 184/100/9 83/193/9 82/194/9 185/101/9
f 182/96/9 85/195/9 84/196/9 183/97/9
f 180/92/9 87/197/9 86/198/9 181/93/9
f 178/88/9 89/199/9 88/200/9 179/89/9
f 176/84/9 91/201/9 90/202/9 177/85/9
f 174/80/9 93/203/9 92/204/9 175/81/9
f 15/9/9 8/205/9 94/206/9 173/10/9
f 5/207/8 14/180/8 145/179/8 18/208/8
f 17/32/8 146/176/8 143/175/8 20/33/8
f 19/36/8 144/172/8 141/171/8 22/37/8
f 21/40/8 142/168/8 139/167/8 24/41/8
f 23/44/8 140/164/8 137/163/8 26/45/8
f 25/48/8 138/160/8 135/159/8 28/49/8
f 27/52/8 136/156/8 133/155/8 30/53/8
f 29/56/8 134/152/8 131/151/8 32/57/8
f 31/60/8 132/148/8 129/147/8 34/61/8
f 33/64/8 130/144/8 127/143/8 36/65/8
f 35/68/8 128/140/8 125/139/8 38/69/8
f 37/72/8 126/136/8 123/135/8 40/73/8
f 39/76/8 124/132/8 121/131/8 42/77/8
f 44/209/4 119/16/4 118/15/4 45/210/4
f 46/211/4 117/212/4 116/213/4 47/214/4
f 48/215/4 115/216/4 114/217/4 49/218/4
f 50/219/4 113/220/4 112/221/4 51/222/4
f 52/223/4 111/224/4 110/225/4 53/226/4
f 54/227/4 109/228/4 108/229/4 55/230/4
f 56/231/4 107/232/4 106/233/4 57/234/4
f 58/235/4 105/236/4 104/237/4 59/238/4
f 60/239/4 103/240/4 102/241/4 61/242/4
f 62/243/4 101/244/4 100/245/4 63/246/4
f 64/247/4 99/248/4 98/249/4 65/250/4
f 66/251/4 97/252/4 96/253/4 67/254/4
f 68/255/4 95/256/4 7/257/4 6/258/4
f 94/259/3 8/260/3 7/257/3 95/256/3
f 92/261/3 93/262/3 96/253/3 97/252/3
f 90/263/3 91/264/3 98/249/3 99/248/3
f 88/265/3 89/266/3 100/245/3 101/244/3
f 86/267/3 87/268/3 102/241/3 103/240/3
f 84/269/3 85/270/3 104/237/3 105/236/3
f 82/271/3 83/272/3 106/233/3 107/232/3
f 80/273/3 81/274/3 108/229/3 109/228/3
f 78/275/3 79/276/3 110/225/3 111/224/3
f 76/277/3 77/278/3 112/221/3 113/220/3
f 74/279/3 75/280/3 114/217/3 115/216/3
f 72/281/3 73/282/3 116/213/3 117/212/3
f 198/128/9 69/283/9 3/284/9 12/129/9
f 148/177/6 223/83/6 222/82/6 149/178/6
f 150/173/6 221/87/6 220/86/6 151/174/6
f 152/169/6 219/91/6 218/90/6 153/170/6
f 154/165/6 217/95/6 216/94/6 155/166/6
f 156/161/6 215/99/6 214/98/6 157/162/6
f 158/157/6 213/103/6 212/102/6 159/158/6
f 160/153/6 211/107/6 210/106/6 161/154/6
f 162/149/6 209/111/6 208/110/6 163/150/6
f 164/145/6 207/115/6 206/114/6 165/146/6
f 166/141/6 205/119/6 204/118/6 167/142/6
f 168/137/6 203/123/6 202/122/6 169/138/6
f 170/133/6 201/127/6 200/126/6 171/134/6
f 172/25/6 199/130/6 11/3/6 10/2/6
f 5/207/7 18/208/7 68/285/7 6/286/7
usemtl card2
f 146/176/8 17/32/8 18/208/8 145/179/8
f 144/172/8 19/36/8 20/33/8 143/175/8
f 142/168/8 21/40/8 22/37/8 141/171/8
f 140/164/8 23/44/8 24/41/8 139/167/8
f 138/160/8 25/48/8 26/45/8 137/163/8
f 136/156/8 27/52/8 28/49/8 135/159/8
f 134/152/8 29/56/8 30/53/8 133/155/8
f 132/148/8 31/60/8 32/57/8 131/151/8
f 130/144/8 33/64/8 34/61/8 129/147/8
f 128/140/8 35/68/8 36/65/8 127/143/8
f 126/136/8 37/72/8 38/69/8 125/139/8
f 124/132/8 39/76/8 40/73/8 123/135/8
f 122/24/8 41/28/8 42/77/8 121/131/8
f 174/80/2 223/83/2 224/11/2 173/10/2
f 176/84/2 221/87/2 222/82/2 175/81/2
f 178/88/2 219/91/2 220/86/2 177/85/2
f 180/92/2 217/95/2 218/90/2 179/89/2
f 182/96/2 215/99/2 216/94/2 181/93/2
f 184/100/2 213/103/2 214/98/2 183/97/2
f 186/104/2 211/107/2 212/102/2 185/101/2
f 188/108/2 209/111/2 210/106/2 187/105/2
f 190/112/2 207/115/2 208/110/2 189/109/2
f 192/116/2 205/119/2 206/114/2 191/113/2
f 194/120/2 203/123/2 204/118/2 193/117/2
f 196/124/2 201/127/2 202/122/2 195/121/2
f 198/128/2 199/130/2 200/126/2 197/125/2
f 121/131/5 171/134/5 172/25/5 122/24/5
f 123/135/5 169/138/5 170/133/5 124/132/5
f 125/139/5 167/142/5 168/137/5 126/136/5
f 127/143/5 165/146/5 166/141/5 128/140/5
f 129/147/5 163/150/5 164/145/5 130/144/5
f 131/151/5 161/154/5 162/149/5 132/148/5
f 133/155/5 159/158/5 160/153/5 134/152/5
f 135/159/5 157/162/5 158/157/5 136/156/5
f 137/163/5 155/166/5 156/161/5 138/160/5
f 139/167/5 153/170/5 154/165/5 140/164/5
f 141/171/5 151/174/5 152/169/5 142/168/5
f 143/175/5 149/178/5 150/173/5 144/172/5
f 145/179/5 147/27/5 148/177/5 146/176/5
f 70/13/3 119/16/3 120/19/3 69/18/3
f 72/281/3 117/212/3 118/15/3 71/14/3
f 74/279/3 115/216/3 116/213/3 73/282/3
f 76/277/3 113/220/3 114/217/3 75/280/3
f 78/275/3 111/224/3 112/221/3 77/278/3
f 80/273/3 109/228/3 110/225/3 79/276/3
f 82/271/3 107/232/3 108/229/3 81/274/3
f 84/269/3 105/236/3 106/233/3 83/272/3
f 86/267/3 103/240/3 104/237/3 85/270/3
f 88/265/3 101/244/3 102/241/3 87/268/3
f 90/263/3 99/248/3 100/245/3 89/266/3
f 92/261/3 97/252/3 98/249/3 91/264/3
f 94/259/3 95/256/3 96/253/3 93/262/3
f 17/32/7 67/35/7 68/285/7 18/208/7
f 19/36/7 65/39/7 66/34/7 20/33/7
f 21/40/7 63/43/7 64/38/7 22/37/7
f 23/44/7 61/47/7 62/42/7 24/41/7
f 25/48/7 59/51/7 60/46/7 26/45/7
f 27/52/7 57/55/7 58/50/7 28/49/7
f 29/56/7 55/59/7 56/54/7 30/53/7
f 31/60/7 53/63/7 54/58/7 32/57/7
f 33/64/7 51/67/7 52/62/7 34/61/7
f 35/68/7 49/71/7 50/66/7 36/65/7
f 37/72/7 47/75/7 48/70/7 38/69/7
f 39/76/7 45/79/7 46/74/7 40/73/7
f 41/28/7 43/31/7 44/78/7 42/77/7
f 119/16/4 44/209/4 43/22/4 120/19/4
f 117/212/4 46/211/4 45/210/4 118/15/4
f 115/216/4 48/215/4 47/214/4 116/213/4
f 113/220/4 50/219/4 49/218/4 114/217/4
f 111/224/4 52/223/4 51/222/4 112/221/4
f 109/228/4 54/227/4 53/226/4 110/225/4
f 107/232/4 56/231/4 55/230/4 108/229/4
f 105/236/4 58/235/4 57/234/4 106/233/4
f 103/240/4 60/239/4 59/238/4 104/237/4
f 101/244/4 62/243/4 61/242/4 102/241/4
f 99/248/4 64/247/4 63/246/4 100/245/4
f 97/252/4 66/251/4 65/250/4 98/249/4
f 95/256/4 68/255/4 67/254/4 96/253/4
f 93/203/9 174/80/9 173/10/9 94/206/9
f 91/201/9 176/84/9 175/81/9 92/204/9
f 89/199/9 178/88/9 177/85/9 90/202/9
f 87/197/9 180/92/9 179/89/9 88/200/9
f 85/195/9 182/96/9 181/93/9 86/198/9
f 83/193/9 184/100/9 183/97/9 84/196/9
f 81/191/9 186/104/9 185/101/9 82/194/9
f 79/189/9 188/108/9 187/105/9 80/192/9
f 77/187/9 190/112/9 189/109/9 78/190/9
f 75/185/9 192/116/9 191/113/9 76/188/9
f 73/183/9 194/120/9 193/117/9 74/186/9
f 71/181/9 196/124/9 195/121/9 72/184/9
f 69/283/9 198/128/9 197/125/9 70/182/9
f 223/83/6 148/177/6 147/27/6 224/11/6
f 221/87/6 150/173/6 149/178/6 222/82/6
f 219/91/6 152/169/6 151/174/6 220/86/6
f 217/95/6 154/165/6 153/170/6 218/90/6
f 215/99/6 156/161/6 155/166/6 216/94/6
f 213/103/6 158/157/6 157/162/6 214/98/6
f 211/107/6 160/153/6 159/158/6 212/102/6
f 209/111/6 162/149/6 161/154/6 210/106/6
f 207/115/6 164/145/6 163/150/6 208/110/6
f 205/119/6 166/141/6 165/146/6 206/114/6
f 203/123/6 168/137/6 167/142/6 204/118/6
f 201/127/6 170/133/6 169/138/6 202/122/6
f 199/130/6 172/25/6 171/134/6 200/126/6
usemtl decktexture
f 5/287/10 6/288/10 7/289/10 8/290/10 15/291/10 16/292/10 13/293/10 14/294/10
