{
    "asset" : {
        "generator" : "Khronos glTF Blender I/O v1.7.33",
        "version" : "2.0"
    },
    "scene" : 0,
    "scenes" : [
        {
            "name" : "Scene",
            "nodes" : [
                0
            ]
        }
    ],
    "nodes" : [
        {
            "mesh" : 0,
            "name" : "money3",
            "rotation" : [
                -0.5,
                -0.5,
                0.4999999701976776,
                0.5
            ],
            "scale" : [
                0.06720287352800369,
                0.12205439060926437,
                0.12205439060926437
            ],
            "translation" : [
                0,
                0.021561000496149063,
                0
            ]
        }
    ],
    "materials" : [
        {
            "doubleSided" : true,
            "name" : "silver2",
            "pbrMetallicRoughness" : {
                "baseColorFactor" : [
                    0.11493541300296783,
                    0.11493541300296783,
                    0.11493541300296783,
                    1
                ],
                "metallicFactor" : 0,
                "roughnessFactor" : 0.5
            }
        },
        {
            "doubleSided" : true,
            "name" : "silver1",
            "pbrMetallicRoughness" : {
                "baseColorFactor" : [
                    0.6738474369049072,
                    0.6738474369049072,
                    0.6738474369049072,
                    1
                ],
                "metallicFactor" : 0,
                "roughnessFactor" : 0.5
            }
        },
        {
            "doubleSided" : true,
            "name" : "silver3",
            "pbrMetallicRoughness" : {
                "baseColorFactor" : [
                    0.07323553413152695,
                    0.07323553413152695,
                    0.07323553413152695,
                    1
                ],
                "metallicFactor" : 0,
                "roughnessFactor" : 0.5
            }
        }
    ],
    "meshes" : [
        {
            "name" : "\u041a\u0443\u0431.091",
            "primitives" : [
                {
                    "attributes" : {
                        "POSITION" : 0,
                        "NORMAL" : 1,
                        "TEXCOORD_0" : 2,
                        "TEXCOORD_1" : 3
                    },
                    "indices" : 4,
                    "material" : 0
                },
                {
                    "attributes" : {
                        "POSITION" : 5,
                        "NORMAL" : 6,
                        "TEXCOORD_0" : 7,
                        "TEXCOORD_1" : 8
                    },
                    "indices" : 9,
                    "material" : 1
                },
                {
                    "attributes" : {
                        "POSITION" : 10,
                        "NORMAL" : 11,
                        "TEXCOORD_0" : 12,
                        "TEXCOORD_1" : 13
                    },
                    "indices" : 14,
                    "material" : 2
                }
            ]
        }
    ],
    "accessors" : [
        {
            "bufferView" : 0,
            "componentType" : 5126,
            "count" : 384,
            "max" : [
                0.06427142024040222,
                1.4657164812088013,
                1.465713620185852
            ],
            "min" : [
                -0.3311142921447754,
                -1.46570885181427,
                -1.4657117128372192
            ],
            "type" : "VEC3"
        },
        {
            "bufferView" : 1,
            "componentType" : 5126,
            "count" : 384,
            "type" : "VEC3"
        },
        {
            "bufferView" : 2,
            "componentType" : 5126,
            "count" : 384,
            "type" : "VEC2"
        },
        {
            "bufferView" : 3,
            "componentType" : 5126,
            "count" : 384,
            "type" : "VEC2"
        },
        {
            "bufferView" : 4,
            "componentType" : 5123,
            "count" : 576,
            "type" : "SCALAR"
        },
        {
            "bufferView" : 5,
            "componentType" : 5126,
            "count" : 194,
            "max" : [
                0.06427142024040222,
                1.4657164812088013,
                1.465713620185852
            ],
            "min" : [
                -0.3311142921447754,
                -1.46570885181427,
                -1.4657117128372192
            ],
            "type" : "VEC3"
        },
        {
            "bufferView" : 6,
            "componentType" : 5126,
            "count" : 194,
            "type" : "VEC3"
        },
        {
            "bufferView" : 7,
            "componentType" : 5126,
            "count" : 194,
            "type" : "VEC2"
        },
        {
            "bufferView" : 8,
            "componentType" : 5126,
            "count" : 194,
            "type" : "VEC2"
        },
        {
            "bufferView" : 9,
            "componentType" : 5123,
            "count" : 372,
            "type" : "SCALAR"
        },
        {
            "bufferView" : 10,
            "componentType" : 5126,
            "count" : 1060,
            "max" : [
                0.027120590209960938,
                0.49574393033981323,
                0.49071502685546875
            ],
            "min" : [
                -0.0803375244140625,
                -0.4914199113845825,
                -0.495697021484375
            ],
            "type" : "VEC3"
        },
        {
            "bufferView" : 11,
            "componentType" : 5126,
            "count" : 1060,
            "type" : "VEC3"
        },
        {
            "bufferView" : 12,
            "componentType" : 5126,
            "count" : 1060,
            "type" : "VEC2"
        },
        {
            "bufferView" : 13,
            "componentType" : 5126,
            "count" : 1060,
            "type" : "VEC2"
        },
        {
            "bufferView" : 14,
            "componentType" : 5123,
            "count" : 3144,
            "type" : "SCALAR"
        }
    ],
    "bufferViews" : [
        {
            "buffer" : 0,
            "byteLength" : 4608,
            "byteOffset" : 0
        },
        {
            "buffer" : 0,
            "byteLength" : 4608,
            "byteOffset" : 4608
        },
        {
            "buffer" : 0,
            "byteLength" : 3072,
            "byteOffset" : 9216
        },
        {
            "buffer" : 0,
            "byteLength" : 3072,
            "byteOffset" : 12288
        },
        {
            "buffer" : 0,
            "byteLength" : 1152,
            "byteOffset" : 15360
        },
        {
            "buffer" : 0,
            "byteLength" : 2328,
            "byteOffset" : 16512
        },
        {
            "buffer" : 0,
            "byteLength" : 2328,
            "byteOffset" : 18840
        },
        {
            "buffer" : 0,
            "byteLength" : 1552,
            "byteOffset" : 21168
        },
        {
            "buffer" : 0,
            "byteLength" : 1552,
            "byteOffset" : 22720
        },
        {
            "buffer" : 0,
            "byteLength" : 744,
            "byteOffset" : 24272
        },
        {
            "buffer" : 0,
            "byteLength" : 12720,
            "byteOffset" : 25016
        },
        {
            "buffer" : 0,
            "byteLength" : 12720,
            "byteOffset" : 37736
        },
        {
            "buffer" : 0,
            "byteLength" : 8480,
            "byteOffset" : 50456
        },
        {
            "buffer" : 0,
            "byteLength" : 8480,
            "byteOffset" : 58936
        },
        {
            "buffer" : 0,
            "byteLength" : 6288,
            "byteOffset" : 67416
        }
    ],
    "buffers" : [
        {
            "byteLength" : 73704,
            "uri" : "data:application/octet-stream;base64,"
        }
    ]
}
