{
    "asset" : {
        "generator" : "Khronos glTF Blender I/O v1.7.33",
        "version" : "2.0"
    },
    "scene" : 0,
    "scenes" : [
        {
            "name" : "Scene",
            "nodes" : [
                0
            ]
        }
    ],
    "nodes" : [
        {
            "mesh" : 0,
            "name" : "money5"
        }
    ],
    "materials" : [
        {
            "doubleSided" : true,
            "name" : "gold2",
            "pbrMetallicRoughness" : {
                "baseColorFactor" : [
                    0.4385438859462738,
                    0.23231397569179535,
                    0.006194768939167261,
                    1
                ],
                "metallicFactor" : 0,
                "roughnessFactor" : 0.5
            }
        },
        {
            "doubleSided" : true,
            "name" : "gold1",
            "pbrMetallicRoughness" : {
                "baseColorFactor" : [
                    1,
                    0.5208998322486877,
                    0.010607913136482239,
                    1
                ],
                "metallicFactor" : 0,
                "roughnessFactor" : 0.5
            }
        },
        {
            "doubleSided" : true,
            "name" : "gold3",
            "pbrMetallicRoughness" : {
                "baseColorFactor" : [
                    0.23301535844802856,
                    0.10117422789335251,
                    0.0038756290450692177,
                    1
                ],
                "metallicFactor" : 0,
                "roughnessFactor" : 0.5
            }
        }
    ],
    "meshes" : [
        {
            "name" : "\u041a\u0443\u0431.093",
            "primitives" : [
                {
                    "attributes" : {
                        "POSITION" : 0,
                        "NORMAL" : 1,
                        "TEXCOORD_0" : 2,
                        "TEXCOORD_1" : 3
                    },
                    "indices" : 4,
                    "material" : 0
                },
                {
                    "attributes" : {
                        "POSITION" : 5,
                        "NORMAL" : 6,
                        "TEXCOORD_0" : 7,
                        "TEXCOORD_1" : 8
                    },
                    "indices" : 9,
                    "material" : 1
                },
                {
                    "attributes" : {
                        "POSITION" : 10,
                        "NORMAL" : 11,
                        "TEXCOORD_0" : 12,
                        "TEXCOORD_1" : 13
                    },
                    "indices" : 14,
                    "material" : 2
                }
            ]
        }
    ],
    "accessors" : [
        {
            "bufferView" : 0,
            "componentType" : 5126,
            "count" : 384,
            "max" : [
                0.17889654636383057,
                0.02588021196424961,
                0.1788962036371231
            ],
            "min" : [
                -0.17889678478240967,
                -0.0006908196955919266,
                -0.17889712750911713
            ],
            "type" : "VEC3"
        },
        {
            "bufferView" : 1,
            "componentType" : 5126,
            "count" : 384,
            "type" : "VEC3"
        },
        {
            "bufferView" : 2,
            "componentType" : 5126,
            "count" : 384,
            "type" : "VEC2"
        },
        {
            "bufferView" : 3,
            "componentType" : 5126,
            "count" : 384,
            "type" : "VEC2"
        },
        {
            "bufferView" : 4,
            "componentType" : 5123,
            "count" : 576,
            "type" : "SCALAR"
        },
        {
            "bufferView" : 5,
            "componentType" : 5126,
            "count" : 191,
            "max" : [
                0.17889654636383057,
                0.02588021196424961,
                0.1788962036371231
            ],
            "min" : [
                -0.17889678478240967,
                -0.0006908196955919266,
                -0.17889712750911713
            ],
            "type" : "VEC3"
        },
        {
            "bufferView" : 6,
            "componentType" : 5126,
            "count" : 191,
            "type" : "VEC3"
        },
        {
            "bufferView" : 7,
            "componentType" : 5126,
            "count" : 191,
            "type" : "VEC2"
        },
        {
            "bufferView" : 8,
            "componentType" : 5126,
            "count" : 191,
            "type" : "VEC2"
        },
        {
            "bufferView" : 9,
            "componentType" : 5123,
            "count" : 372,
            "type" : "SCALAR"
        },
        {
            "bufferView" : 10,
            "componentType" : 5126,
            "count" : 1033,
            "max" : [
                0.06050200015306473,
                0.023383580148220062,
                0.059979960322380066
            ],
            "min" : [
                -0.059893928468227386,
                0.016162084415555,
                -0.060507725924253464
            ],
            "type" : "VEC3"
        },
        {
            "bufferView" : 11,
            "componentType" : 5126,
            "count" : 1033,
            "type" : "VEC3"
        },
        {
            "bufferView" : 12,
            "componentType" : 5126,
            "count" : 1033,
            "type" : "VEC2"
        },
        {
            "bufferView" : 13,
            "componentType" : 5126,
            "count" : 1033,
            "type" : "VEC2"
        },
        {
            "bufferView" : 14,
            "componentType" : 5123,
            "count" : 3078,
            "type" : "SCALAR"
        }
    ],
    "bufferViews" : [
        {
            "buffer" : 0,
            "byteLength" : 4608,
            "byteOffset" : 0
        },
        {
            "buffer" : 0,
            "byteLength" : 4608,
            "byteOffset" : 4608
        },
        {
            "buffer" : 0,
            "byteLength" : 3072,
            "byteOffset" : 9216
        },
        {
            "buffer" : 0,
            "byteLength" : 3072,
            "byteOffset" : 12288
        },
        {
            "buffer" : 0,
            "byteLength" : 1152,
            "byteOffset" : 15360
        },
        {
            "buffer" : 0,
            "byteLength" : 2292,
            "byteOffset" : 16512
        },
        {
            "buffer" : 0,
            "byteLength" : 2292,
            "byteOffset" : 18804
        },
        {
            "buffer" : 0,
            "byteLength" : 1528,
            "byteOffset" : 21096
        },
        {
            "buffer" : 0,
            "byteLength" : 1528,
            "byteOffset" : 22624
        },
        {
            "buffer" : 0,
            "byteLength" : 744,
            "byteOffset" : 24152
        },
        {
            "buffer" : 0,
            "byteLength" : 12396,
            "byteOffset" : 24896
        },
        {
            "buffer" : 0,
            "byteLength" : 12396,
            "byteOffset" : 37292
        },
        {
            "buffer" : 0,
            "byteLength" : 8264,
            "byteOffset" : 49688
        },
        {
            "buffer" : 0,
            "byteLength" : 8264,
            "byteOffset" : 57952
        },
        {
            "buffer" : 0,
            "byteLength" : 6156,
            "byteOffset" : 66216
        }
    ],
    "buffers" : [
        {
            "byteLength" : 72372,
            "uri" : "data:application/octet-stream;base64,"
        }
    ]
}
