<svg width="1700" height="1700" viewBox="0 0 1700 1700" fill="none" xmlns="http://www.w3.org/2000/svg">
<circle cx="850" cy="850" r="765" fill="#CCB844" stroke="#B9A134" stroke-width="170"/>
<path d="M1122 446L934 725C921 744 946 767 964 751L1149 590C1154 586 1161 589 1161 596V1099C1161 1106 1152 1109 1148 1104L588 434C570 412 544 400 515 400H495C443 400 400 443 400 496V1204C400 1257 443 1300 496 1300C529 1300 560 1283 578 1254L766 975C779 956 754 933 736 949L551 1109C546 1113 539 1110 539 1103V601C539 594 548 591 552 596L1112 1266C1130 1288 1157 1300 1185 1300H1205C1258 1300 1301 1257 1301 1204V496C1301 443 1258 400 1205 400C1171 400 1140 417 1122 446Z" fill="#B9A134"/>
</svg>
